<?xml version="1.0" encoding="UTF-8" standalone="no"?>
<!-- Created with Inkscape (http://www.inkscape.org/) -->

<svg
   xmlns:dc="http://purl.org/dc/elements/1.1/"
   xmlns:cc="http://creativecommons.org/ns#"
   xmlns:rdf="http://www.w3.org/1999/02/22-rdf-syntax-ns#"
   xmlns:svg="http://www.w3.org/2000/svg"
   xmlns="http://www.w3.org/2000/svg"
   xmlns:sodipodi="http://sodipodi.sourceforge.net/DTD/sodipodi-0.dtd"
   xmlns:inkscape="http://www.inkscape.org/namespaces/inkscape"
   width="210mm"
   height="297mm"
   viewBox="0 0 210 297"
   version="1.1"
   id="svg8"
   inkscape:version="0.92.4 (5da689c313, 2019-01-14)"
   sodipodi:docname="image-not-found.svg">
  <defs
     id="defs2" />
  <sodipodi:namedview
     id="base"
     pagecolor="#ffffff"
     bordercolor="#666666"
     borderopacity="1.0"
     inkscape:pageopacity="0.0"
     inkscape:pageshadow="2"
     inkscape:zoom="1.4"
     inkscape:cx="157.11736"
     inkscape:cy="660.57694"
     inkscape:document-units="mm"
     inkscape:current-layer="layer1"
     showgrid="false"
     inkscape:window-width="1920"
     inkscape:window-height="1001"
     inkscape:window-x="-9"
     inkscape:window-y="-9"
     inkscape:window-maximized="1" />
  <metadata
     id="metadata5">
    <rdf:RDF>
      <cc:Work
         rdf:about="">
        <dc:format>image/svg+xml</dc:format>
        <dc:type
           rdf:resource="http://purl.org/dc/dcmitype/StillImage" />
        <dc:title></dc:title>
      </cc:Work>
    </rdf:RDF>
  </metadata>
  <g
     inkscape:label="Camada 1"
     inkscape:groupmode="layer"
     id="layer1">
    <rect
       id="rect33"
       width="156.10417"
       height="66.145836"
       x="3.004905"
       y="2.5479951"
       style="fill:#e0e0e0;fill-opacity:1;stroke-width:0.15468313"
       inkscape:export-xdpi="96"
       inkscape:export-ydpi="96" />
    <g
       id="g867"
       transform="translate(0,-66.953864)"
       inkscape:export-xdpi="96"
       inkscape:export-ydpi="96">
      <g
         transform="matrix(0.82195328,0,0,0.82195328,12.920858,14.754861)"
         id="g848">
        <rect
           id="rect35"
           width="36.550072"
           height="23.718006"
           x="62.791298"
           y="88.262642"
           style="fill:#fffefe;fill-opacity:1;stroke-width:0.27525124"
           rx="5"
           ry="5.2182951" />
        <g
           id="g21"
           transform="matrix(0.19907978,0,0,0.19639004,63.077371,81.425935)">
          <path
             style="fill:#da6f45;stroke-width:0.26458335"
             d="m 19.427975,155.77852 c -4.138618,-0.51724 -8.383508,-2.3602 -11.9127063,-5.172 -4.8111437,-3.83316 -8.01746518,-9.72614 -8.7070964,-16.00301 -0.3894561,-3.54474 -0.3894561,-75.45424 0,-78.998982 C -0.3439042,47.886934 3.9750008,41.326582 10.868495,37.28508 14.079939,35.402281 18.450451,34.308147 23.7936,34.049345 l 1.322917,-0.06408 0.143245,-2.513542 c 0.161954,-2.841789 0.703048,-4.202072 2.160257,-5.430771 1.862328,-1.570289 1.937681,-1.580687 11.454831,-1.580687 8.308203,0 8.78894,0.02686 9.921876,0.554344 2.648722,1.233223 3.755668,3.115033 3.919294,6.662812 l 0.11321,2.454653 3.573298,-0.0734 3.573296,-0.07341 2.017398,-6.746875 c 2.246551,-7.513238 2.774834,-8.551534 5.168863,-10.158981 2.513785,-1.687854 1.360567,-1.614977 25.555475,-1.614977 24.19491,0 23.04169,-0.07288 25.55548,1.614977 2.39394,1.607394 2.9223,2.645785 5.16906,10.158981 l 2.01761,6.746875 18.09091,0.151532 c 19.36513,0.162203 18.68707,0.116044 22.82685,1.55398 4.96756,1.725464 9.95738,6.01967 12.69708,10.92703 1.43503,2.570424 2.47415,6.019818 2.81,9.327875 0.20779,2.046631 0.26732,14.257414 0.20059,41.142708 -0.0844,33.990201 -0.14201,38.423831 -0.51952,39.958561 -2.31398,9.40735 -9.02661,16.1216 -18.46242,18.46686 -1.56797,0.38972 -8.14359,0.4329 -71.708557,0.47089 -42.223193,0.0252 -70.769413,-0.0565 -71.966668,-0.20618 z M 42.329549,66.996349 c 1.677311,-2.285013 5.807697,-6.591213 8.186968,-8.535451 5.746578,-4.695859 13.022686,-8.242678 20.019008,-9.758489 5.714447,-1.238083 11.002561,-1.597882 15.776316,-1.073409 9.068568,0.996325 17.510429,4.419391 24.661969,10.000112 2.89476,2.258933 6.87809,6.29512 8.73125,8.847122 l 1.45521,2.003975 2.84427,0.01659 2.84427,0.01659 V 54.534146 40.554896 L 99.817503,40.378937 C 84.950282,40.282158 61.132762,40.202976 46.88968,40.202976 c -28.663572,0 -28.105619,-0.02986 -31.82733,1.703298 -4.647507,2.164292 -7.9447976,5.903648 -9.5800206,10.864411 -0.6609345,2.005073 -0.7037017,2.462117 -0.8111913,8.66898 -0.06241,3.603771 -0.045606,6.729161 0.037338,6.945312 0.131355,0.342305 2.4831437,0.392999 18.2320409,0.392999 h 18.081231 z m 119.378121,1.605785 14.08906,-0.175302 -0.005,-6.108282 c -0.005,-7.101184 -0.26074,-8.766397 -1.82959,-11.929115 -2.38652,-4.811104 -6.33653,-8.021032 -11.6216,-9.444167 -1.88201,-0.506781 -2.96327,-0.55362 -15.58224,-0.674995 l -13.5599,-0.130429 v 14.142678 c 0,7.778472 0.0794,14.222052 0.17639,14.319065 0.22396,0.223964 10.36035,0.22416 28.33247,5.29e-4 z M 150.7936,63.780135 c -5.01389,-0.153054 -5.37111,-0.198771 -6.80517,-0.870908 -1.87657,-0.879536 -3.65167,-2.672003 -4.61212,-4.65723 -0.62898,-1.300091 -0.7333,-1.847059 -0.74266,-3.893812 -0.009,-2.066952 0.0869,-2.590782 0.72982,-3.96875 0.96799,-2.074625 2.76402,-3.876368 4.78634,-4.801558 1.57048,-0.718479 1.78693,-0.744429 7.56983,-0.907584 3.27422,-0.09238 6.50986,-0.07075 7.19031,0.04805 2.97722,0.519808 5.53363,2.452393 6.88903,5.207928 0.80862,1.643917 0.8694,1.95384 0.86641,4.417843 -0.003,2.453212 -0.065,2.768455 -0.8352,4.247092 -1.00268,1.924844 -2.79664,3.642707 -4.72694,4.526428 -1.721,0.787903 -3.07232,0.873429 -10.30965,0.652501 z M 46.626002,32.331622 46.547767,30.545685 39.17166,30.475295 c -5.220923,-0.04982 -7.48216,0.01762 -7.739063,0.230833 -0.373311,0.309822 -0.522629,2.898979 -0.186565,3.235042 0.09701,0.09701 3.614795,0.17639 7.817297,0.17639 h 7.640908 z m 72.168788,1.461484 c 0.0551,-0.05514 -0.60483,-2.475248 -1.46662,-5.378008 -2.09976,-7.07264 -1.51401,-6.593329 -8.33687,-6.821834 -2.88548,-0.09664 -12.442242,-0.175704 -21.237239,-0.175704 -17.68779,0 -17.344086,-0.03172 -18.142871,1.67409 -0.619974,1.323951 -3.305728,10.717927 -3.121157,10.916883 0.168915,0.182078 52.121227,-0.0319 52.304757,-0.215427 z"
             id="path29"
             inkscape:connector-curvature="0"
             sodipodi:nodetypes="cssssccssscscccssscccsscccccscsssssccccccssssscscscccscscscccsccccsscccccsccsccsccccssccc" />
          <path
             style="fill:#7b7c80;stroke-width:0.26458335"
             d="m 19.427975,155.77852 c -4.138618,-0.51724 -8.383508,-2.3602 -11.9127063,-5.172 -4.8111437,-3.83316 -8.01746518,-9.72614 -8.7070964,-16.00301 -0.3894561,-3.54474 -0.3894561,-75.45424 0,-78.998982 C -0.3439042,47.886934 3.9750008,41.326582 10.868495,37.28508 14.079939,35.402281 18.450451,34.308147 23.7936,34.049345 l 1.322917,-0.06408 0.143245,-2.513542 c 0.161954,-2.841789 0.703048,-4.202072 2.160257,-5.430771 1.862328,-1.570289 1.937681,-1.580687 11.454831,-1.580687 8.308203,0 8.78894,0.02686 9.921876,0.554344 2.648722,1.233223 3.755668,3.115033 3.919294,6.662812 l 0.11321,2.454653 3.573298,-0.0734 3.573296,-0.07341 2.017398,-6.746875 c 2.246551,-7.513238 2.774834,-8.551534 5.168863,-10.158981 2.513785,-1.687854 1.360567,-1.614977 25.555475,-1.614977 24.19491,0 23.04169,-0.07288 25.55548,1.614977 2.39394,1.607394 2.9223,2.645785 5.16906,10.158981 l 2.01761,6.746875 18.09091,0.151532 c 19.36513,0.162203 18.68707,0.116044 22.82685,1.55398 4.96756,1.725464 9.95738,6.01967 12.69708,10.92703 1.43503,2.570424 2.47415,6.019818 2.81,9.327875 0.20779,2.046631 0.26732,14.257414 0.20059,41.142708 -0.0844,33.990201 -0.14201,38.423831 -0.51952,39.958561 -2.31398,9.40735 -9.02661,16.1216 -18.46242,18.46686 -1.56797,0.38972 -8.14359,0.4329 -71.708557,0.47089 -42.223193,0.0252 -70.769413,-0.0565 -71.966668,-0.20618 z m 95.052905,-6.7801 c 1.36057,-0.66984 2.22567,-1.36978 3.69852,-2.9924 1.05739,-1.16492 2.65624,-2.70004 3.553,-3.41137 2.38465,-1.89158 3.87548,-4.13675 4.95174,-7.45727 1.05021,-3.24019 1.403,-3.96674 3.10067,-6.38562 1.49839,-2.13494 2.23501,-4.21533 2.62115,-7.40276 0.35983,-2.97025 1.02959,-4.74095 2.7354,-7.23188 3.23675,-4.72648 3.83264,-6.22966 4.15429,-10.47961 0.22675,-2.99593 0.74101,-5.176837 1.63301,-6.925302 1.24656,-2.443461 1.58747,-3.9254 1.80026,-7.825898 0.23528,-4.312669 0.76465,-6.373085 2.8045,-10.915722 0.63753,-1.419741 1.15914,-2.699663 1.15914,-2.844271 0,-0.169902 -3.83801,-0.262924 -10.84792,-0.262924 -6.84329,0 -10.84791,0.09489 -10.84791,0.25704 0,0.14137 0.29329,0.920224 0.65176,1.730785 1.06429,2.406558 2.44039,6.93053 3.09745,10.183008 0.53781,2.662195 0.61326,3.787193 0.60335,8.995834 -0.0103,5.43049 -0.0738,6.24696 -0.72291,9.30006 -0.92237,4.3385 -2.00663,7.58005 -3.77803,11.29497 -4.96074,10.40354 -13.47124,18.76301 -23.83936,23.4163 -15.303074,6.86814 -32.891309,5.39275 -46.788306,-3.92484 -11.21437,-7.51895 -18.454751,-18.69122 -20.927354,-32.29195 -0.677527,-3.72678 -0.677958,-11.887705 -8.28e-4,-15.73204 0.638886,-3.627231 1.740646,-7.521218 2.917301,-10.310718 0.51989,-1.232508 0.945256,-2.394283 0.945256,-2.581722 0,-0.275037 -3.126957,-0.327639 -16.20573,-0.272616 l -16.2057295,0.06818 v 29.765626 c 0,24.05257 0.068376,30.04493 0.356243,31.22083 0.1959345,0.80037 0.8906827,2.57192 1.5438861,3.93679 0.9776539,2.04282 1.5695957,2.86731 3.3479211,4.66319 1.8124063,1.83029 2.5650453,2.37593 4.6738253,3.38838 2.191716,1.05226 3.437408,1.41819 6.35,1.86536 0.363802,0.0559 21.142751,0.087 46.175442,0.0692 l 45.513983,-0.0323 z M 42.329549,66.996349 c 1.677311,-2.285013 5.807697,-6.591213 8.186968,-8.53545 5.746578,-4.69586 13.022686,-8.242679 20.019008,-9.75849 5.714447,-1.238083 11.002561,-1.597882 15.776316,-1.073409 9.068568,0.996325 17.510429,4.419391 24.661969,10.000112 2.89476,2.258933 6.87809,6.29512 8.73125,8.847122 l 1.45521,2.003975 2.84427,0.01659 2.84427,0.01659 V 54.534146 40.554896 L 99.817503,40.378937 C 84.950282,40.282158 61.132762,40.202976 46.88968,40.202976 c -28.663572,0 -28.105619,-0.02986 -31.82733,1.703298 -4.647507,2.164292 -7.9447976,5.903648 -9.5800206,10.864411 -0.6609345,2.005073 -0.7037017,2.462117 -0.8111913,8.66898 -0.06241,3.603771 -0.045606,6.729161 0.037338,6.945312 0.131355,0.342305 2.4831437,0.392999 18.2320409,0.392999 h 18.081231 z m 119.378121,1.605785 14.08906,-0.175302 -0.005,-6.108282 c -0.005,-7.101184 -0.26074,-8.766397 -1.82959,-11.929115 -2.38652,-4.811104 -6.33653,-8.021032 -11.6216,-9.444167 -1.88201,-0.506781 -2.96327,-0.55362 -15.58224,-0.674995 l -13.5599,-0.130429 v 14.142678 c 0,7.778472 0.0794,14.222052 0.17639,14.319065 0.22396,0.223964 10.36035,0.22416 28.33247,5.29e-4 z M 150.7936,63.780135 c -5.01389,-0.153054 -5.37111,-0.198771 -6.80517,-0.870908 -1.87657,-0.879536 -3.65167,-2.672003 -4.61212,-4.65723 -0.62898,-1.300091 -0.7333,-1.847059 -0.74266,-3.893812 -0.009,-2.066952 0.0869,-2.590782 0.72982,-3.96875 0.96799,-2.074625 2.76402,-3.876368 4.78634,-4.801558 1.57048,-0.718479 1.78693,-0.744429 7.56983,-0.907584 3.27422,-0.09238 6.50986,-0.07075 7.19031,0.04805 2.97722,0.519808 5.53363,2.452393 6.88903,5.207928 0.80862,1.643917 0.8694,1.95384 0.86641,4.417843 -0.003,2.453212 -0.065,2.768455 -0.8352,4.247092 -1.00268,1.924844 -2.79664,3.642707 -4.72694,4.526428 -1.721,0.787903 -3.07232,0.873429 -10.30965,0.652501 z M 46.626002,32.331622 46.547767,30.545685 39.17166,30.475295 c -5.220923,-0.04982 -7.48216,0.01762 -7.739063,0.230833 -0.373311,0.309822 -0.522629,2.898979 -0.186565,3.235042 0.09701,0.09701 3.614795,0.17639 7.817297,0.17639 h 7.640908 z m 72.168788,1.461484 c 0.0551,-0.05514 -0.60483,-2.475248 -1.46662,-5.378008 -2.09976,-7.07264 -1.51401,-6.593329 -8.33687,-6.821834 -2.88548,-0.09664 -12.442242,-0.175704 -21.237239,-0.175704 -17.68779,0 -17.344086,-0.03172 -18.142871,1.67409 -0.619974,1.323951 -3.305728,10.717927 -3.121157,10.916883 0.168915,0.182078 52.121227,-0.0319 52.304757,-0.215427 z"
             id="path27"
             inkscape:connector-curvature="0"
             sodipodi:nodetypes="cssssccssscscccssscccsscccccscccccssccsscssscscccssscssscsscccccccsssssccccccssssscscscccscscscccsccccsscccccsccsccsccccssccc" />
          <path
             style="fill:#aa562b;stroke-width:0.26458335"
             d="m 18.808784,155.2858 c -3.161292,-0.53474 -6.810182,-1.99598 -9.434976,-3.77833 -1.7580082,-1.19377 -4.6599027,-4.05492 -5.9754084,-5.89152 -1.5425606,-2.15359 -2.88392136,-5.04291 -3.61265532,-7.78172 l -0.59839491,-2.24896 V 95.104018 54.622768 L -0.21425572,52.37381 C 2.1045077,43.659144 8.6919185,37.274343 17.575892,35.130832 c 0.654843,-0.158001 2.678906,-0.361326 4.497916,-0.451834 l 3.307292,-0.164563 0.14855,-2.52539 c 0.226907,-3.857487 1.404954,-5.774656 4.150392,-6.754408 1.319924,-0.471032 16.824775,-0.53051 18.360388,-0.07043 1.369391,0.410279 3.096744,1.928865 3.69684,3.250044 0.349671,0.769839 0.489059,1.712399 0.493229,3.335287 0.0036,1.39932 0.126915,2.383292 0.32331,2.579687 0.481875,0.481875 7.190452,0.438198 7.595164,-0.04945 0.167497,-0.201822 1.1381,-3.190034 2.156894,-6.64047 1.018791,-3.450434 2.075683,-6.711286 2.348643,-7.246332 0.713406,-1.398392 2.861013,-3.302275 4.390294,-3.892053 1.25929,-0.485656 2.27016,-0.50732 23.672756,-0.50732 21.4026,0 22.41347,0.02167 23.67276,0.50732 1.52928,0.589778 3.67688,2.493661 4.39029,3.892053 0.27296,0.535046 1.32985,3.795898 2.34864,7.246332 1.0188,3.450436 1.9894,6.438648 2.1569,6.64047 0.25401,0.306064 3.18859,0.36695 17.68605,0.36695 10.97751,0 17.95994,0.102452 18.95146,0.278072 9.27486,1.64278 16.53507,8.323268 18.96322,17.449012 l 0.59839,2.248958 v 40.48125 40.481253 l -0.59839,2.24896 c -1.16481,4.37772 -3.30331,7.99346 -6.582,11.12873 -3.00207,2.87074 -5.69684,4.44693 -9.80676,5.73604 l -2.32743,0.73002 -71.04063,0.0367 c -39.072345,0.0202 -71.616918,-0.0608 -72.321276,-0.17992 z m 95.672096,-6.28738 c 1.36057,-0.66984 2.22567,-1.36978 3.69852,-2.9924 1.05739,-1.16492 2.65624,-2.70004 3.553,-3.41137 2.38465,-1.89158 3.87548,-4.13675 4.95174,-7.45727 1.05021,-3.24019 1.403,-3.96674 3.10067,-6.38562 1.49839,-2.13494 2.23501,-4.21533 2.62115,-7.40276 0.35983,-2.97025 1.02959,-4.74095 2.7354,-7.23188 3.23675,-4.72648 3.83264,-6.22966 4.15429,-10.47961 0.22675,-2.99593 0.74101,-5.176837 1.63301,-6.925302 1.24656,-2.443461 1.58747,-3.9254 1.80026,-7.825898 0.23528,-4.312669 0.76465,-6.373085 2.8045,-10.915722 0.63753,-1.419741 1.15914,-2.699663 1.15914,-2.844271 0,-0.169902 -3.83801,-0.262924 -10.84792,-0.262924 -6.84329,0 -10.84791,0.09489 -10.84791,0.25704 0,0.14137 0.29329,0.920224 0.65176,1.730785 1.06429,2.406558 2.44039,6.93053 3.09745,10.183008 0.53781,2.662195 0.61326,3.787193 0.60335,8.995834 -0.0103,5.43049 -0.0738,6.24696 -0.72291,9.30006 -0.92237,4.3385 -2.00663,7.58005 -3.77803,11.29497 -4.96074,10.40354 -13.47124,18.76301 -23.83936,23.4163 -15.303074,6.86814 -32.891309,5.39275 -46.788306,-3.92484 -11.21437,-7.51895 -18.454751,-18.69122 -20.927354,-32.29195 -0.677527,-3.72678 -0.677958,-11.887705 -8.28e-4,-15.73204 0.638886,-3.627231 1.740646,-7.521218 2.917301,-10.310718 0.51989,-1.232508 0.945256,-2.394283 0.945256,-2.581722 0,-0.275037 -3.126957,-0.327639 -16.20573,-0.272616 l -16.2057295,0.06818 v 29.765626 c 0,24.05257 0.068376,30.04493 0.356243,31.22083 0.1959345,0.80037 0.8906827,2.57192 1.5438861,3.93679 0.9776539,2.04282 1.5695957,2.86731 3.3479211,4.66319 1.8124063,1.83029 2.5650453,2.37593 4.6738253,3.38838 2.191716,1.05226 3.437408,1.41819 6.35,1.86536 0.363802,0.0559 21.142751,0.087 46.175442,0.0692 l 45.513983,-0.0323 z M 85.782675,137.82139 c 10.366851,-1.11937 20.472245,-6.4263 27.175515,-14.27145 7.45644,-8.72663 11.01839,-19.49477 10.17037,-30.746024 -0.99858,-13.248839 -7.6546,-24.628391 -18.76933,-32.089212 -3.21121,-2.155537 -9.355172,-5.054743 -12.374365,-5.839195 -7.830947,-2.034652 -15.842292,-1.841545 -23.608972,0.569076 -14.617232,4.53689 -25.556825,16.631306 -28.896951,31.947422 -0.505209,2.31663 -0.585526,3.483382 -0.585526,8.505761 0,5.022382 0.08032,6.189132 0.585526,8.505762 2.865914,13.14161 11.38464,24.05974 23.191462,29.7236 2.844374,1.36448 3.023034,1.42299 8.086739,2.64833 5.293677,1.28099 9.887194,1.60075 15.025532,1.04593 z m -9.469282,-3.85438 c -4.620723,-0.82766 -5.981414,-1.25379 -11.080139,-3.46994 -5.054947,-2.19713 -11.098324,-7.10909 -14.736281,-11.97743 -3.283199,-4.39359 -5.893036,-10.40701 -6.889788,-15.875 -0.629959,-3.455834 -0.636521,-10.110168 -0.01331,-13.493747 2.78202,-15.104277 14.48267,-27.156286 29.676808,-30.567974 3.008339,-0.675492 10.599092,-0.819187 13.92351,-0.263578 3.763579,0.629007 9.621361,2.524869 12.28139,3.974851 15.441547,8.417195 23.186387,26.476706 18.665927,43.525448 -2.80505,10.57914 -10.72945,20.04942 -20.664651,24.69587 -5.639088,2.63727 -9.087596,3.41101 -15.607218,3.50181 -2.692135,0.0375 -5.192448,0.0148 -5.55625,-0.0503 z m 9.526101,-6.03998 c 13.733629,-2.07035 24.546956,-12.54382 27.145676,-26.29251 0.57487,-3.041365 0.57674,-8.470612 0.004,-11.473506 -2.16999,-11.376549 -9.69456,-20.353771 -20.668452,-24.65859 -3.623088,-1.42126 -5.417791,-1.775103 -9.82753,-1.937597 -6.236489,-0.229803 -10.490235,0.612881 -15.590039,3.088455 -14.686558,7.12923 -21.796765,24.099721 -16.60564,39.633978 2.026902,6.06543 5.76343,11.26738 10.850317,15.10568 7.380986,5.5693 15.986131,7.84645 24.691701,6.53409 z M 102.80265,98.24444 c -0.82559,-0.578266 -1.35284,-1.922233 -1.35843,-3.462653 -0.003,-0.695899 -0.17331,-2.06131 -0.37951,-3.034247 -1.332506,-6.28723 -5.49038,-11.481985 -11.673333,-14.584394 -1.790991,-0.898663 -4.118925,-1.477899 -7.012813,-1.74493 -1.935618,-0.178609 -2.505988,-0.334205 -3.030136,-0.826614 -1.286745,-1.208836 -1.024345,-3.390606 0.506315,-4.209788 1.584061,-0.847764 9.381197,0.467691 12.684414,2.13999 8.227603,4.165335 13.882453,12.480885 14.390273,21.161163 0.082,1.401236 0.0698,2.863446 -0.0271,3.249354 -0.35965,1.432951 -2.80833,2.21665 -4.09973,1.312119 z M 43.051915,66.859747 C 45.879454,63.31383 47.493467,61.617613 50.217028,59.3297 61.458777,49.886131 76.404849,46.060513 90.7222,48.961939 c 6.098175,1.235802 13.1549,4.290629 18.11731,7.842911 3.04724,2.181326 7.83944,6.746214 9.80722,9.342012 2.53532,3.344492 2.22097,3.160281 5.39303,3.160281 2.16654,0 2.86198,-0.09073 3.18703,-0.415774 0.36748,-0.367488 0.41577,-2.039927 0.41577,-14.400893 0,-12.422542 -0.0469,-14.03206 -0.42013,-14.405252 -0.3815,-0.381498 -5.36332,-0.41365 -54.173442,-0.349629 l -53.753305,0.07051 -2.028468,0.6925 c -4.914455,1.677749 -8.9176197,5.034716 -11.0059734,9.229375 -1.8217489,3.659156 -1.976935,4.548963 -2.1123514,12.111795 -0.090075,5.030554 -0.03959,6.784422 0.2037319,7.077604 0.279183,0.336394 2.8173918,0.389768 18.5355999,0.389768 h 18.212121 z m 133.154095,2.000316 c 0.4033,-0.403301 0.43354,-1.083344 0.30876,-6.945312 -0.15446,-7.256225 -0.38884,-8.689007 -1.93361,-11.820126 -1.79738,-3.643151 -4.88179,-6.724594 -8.44172,-8.433612 -3.80866,-1.828424 -3.56337,-1.803495 -18.87007,-1.917859 -10.42309,-0.07788 -13.93645,-0.02585 -14.22135,0.210593 -0.31951,0.26517 -0.37838,2.523463 -0.37838,14.516208 0,10.693369 0.0785,14.280629 0.3175,14.519688 0.24167,0.241668 5.38742,0.3175 21.54465,0.3175 19.5752,0 21.26193,-0.03479 21.67422,-0.44708 z M 150.7936,63.243531 c -4.66689,-0.135904 -5.43773,-0.221599 -6.52877,-0.725832 -1.75217,-0.809776 -3.52464,-2.544103 -4.37987,-4.285615 -0.64479,-1.312973 -0.73302,-1.795214 -0.73302,-4.006191 0,-2.358022 0.0558,-2.616433 0.90172,-4.176506 1.05916,-1.953297 2.2244,-3.050813 4.24558,-3.998825 1.46247,-0.685956 1.48981,-0.688211 8.34645,-0.688211 h 6.87916 l 1.49632,0.701506 c 1.84652,0.865685 3.41617,2.447057 4.3829,4.415626 0.63124,1.285412 0.73455,1.815904 0.72964,3.74641 -0.005,1.896682 -0.12118,2.497624 -0.74279,3.836458 -0.92311,1.988241 -2.9016,3.895278 -4.75792,4.5861 -1.81708,0.676214 -3.51889,0.77914 -9.8394,0.59508 z m 8.0603,-5.644201 c 2.52614,-1.295336 2.84429,-4.255608 0.67535,-6.283854 -0.70487,-0.659148 -0.72801,-0.661738 -6.62585,-0.741571 -5.01843,-0.06793 -6.04312,-0.01569 -6.73784,0.343574 -2.31347,1.196346 -2.50704,4.891747 -0.33689,6.431661 1.06138,0.753142 1.29569,0.781109 6.8271,0.814811 4.73598,0.02886 5.10659,-0.0049 6.19813,-0.564621 z M 46.79071,34.486127 c 0.595117,-0.228367 0.597318,-3.59155 0.0028,-4.186126 -0.357823,-0.357815 -1.429882,-0.415775 -7.690321,-0.415775 -4.508548,0 -7.469127,0.104143 -7.78631,0.273892 -0.434207,0.232381 -0.511773,0.56656 -0.511773,2.204863 0,1.062032 0.07938,2.010343 0.17639,2.107356 0.220414,0.220416 15.236934,0.235413 15.809262,0.01579 z m 72.58456,-0.17013 c 0.18376,-0.230063 -0.20275,-1.91307 -1.26982,-5.52935 -1.76517,-5.982112 -2.06557,-6.660163 -3.23351,-7.298462 -0.79372,-0.433779 -2.36312,-0.473268 -21.757505,-0.547468 -14.295951,-0.05469 -21.209503,0.0095 -21.874772,0.203216 -1.649219,0.480145 -2.081691,1.305359 -3.881448,7.406264 -1.319207,4.471922 -1.592768,5.69146 -1.31604,5.866921 0.192138,0.121828 12.211249,0.22333 26.709135,0.225558 20.77448,0.0032 26.41576,-0.06603 26.62396,-0.326679 z"
             id="path25"
             inkscape:connector-curvature="0"
             sodipodi:nodetypes="cccscccscscscsscscsscsccccssccccccccscccccssccsscssscscccssscssscsscccccccsssssssscssscccsssssssccccccssssscccccssccsccccsssscscscscssscscscscsscscscsccscsscsccccscsscsscccscsccccscscscsc" />
          <path
             style="fill:#232228;stroke-width:0.26458335"
             d="m 18.808784,155.2858 c -3.161292,-0.53474 -6.810182,-1.99598 -9.434976,-3.77833 -1.7580082,-1.19377 -4.6599027,-4.05492 -5.9754084,-5.89152 -1.5425606,-2.15359 -2.88392136,-5.04291 -3.61265532,-7.78172 l -0.59839491,-2.24896 V 95.104018 54.622768 L -0.21425572,52.37381 C 2.1045077,43.659144 8.6919185,37.274343 17.575892,35.130832 c 0.654843,-0.158001 2.678906,-0.361326 4.497916,-0.451834 l 3.307292,-0.164563 0.14855,-2.52539 c 0.226907,-3.857487 1.404954,-5.774656 4.150392,-6.754408 1.319924,-0.471032 16.824775,-0.53051 18.360388,-0.07043 1.369391,0.410279 3.096744,1.928865 3.69684,3.250044 0.349671,0.769839 0.489059,1.712399 0.493229,3.335287 0.0036,1.39932 0.126915,2.383292 0.32331,2.579687 0.481875,0.481875 7.190452,0.438198 7.595164,-0.04945 0.167497,-0.201822 1.1381,-3.190034 2.156894,-6.64047 1.018791,-3.450434 2.075683,-6.711286 2.348643,-7.246332 0.713406,-1.398392 2.861013,-3.302275 4.390294,-3.892053 1.25929,-0.485656 2.27016,-0.50732 23.672756,-0.50732 21.4026,0 22.41347,0.02167 23.67276,0.50732 1.52928,0.589778 3.67688,2.493661 4.39029,3.892053 0.27296,0.535046 1.32985,3.795898 2.34864,7.246332 1.0188,3.450436 1.9894,6.438648 2.1569,6.64047 0.25401,0.306064 3.18859,0.36695 17.68605,0.36695 10.97751,0 17.95994,0.102452 18.95146,0.278072 9.27486,1.64278 16.53507,8.323268 18.96322,17.449012 l 0.59839,2.248958 v 40.48125 40.481253 l -0.59839,2.24896 c -1.16481,4.37772 -3.30331,7.99346 -6.582,11.12873 -3.00207,2.87074 -5.69684,4.44693 -9.80676,5.73604 l -2.32743,0.73002 -71.04063,0.0367 c -39.072345,0.0202 -71.616918,-0.0608 -72.321276,-0.17992 z M 163.4936,149.41652 c 2.97266,-1.01235 5.24695,-2.41757 7.40428,-4.57489 2.15733,-2.15733 3.56255,-4.43162 4.57489,-7.40428 l 0.72083,-2.11667 0.0737,-30.14168 c 0.0406,-16.577932 -0.019,-30.22626 -0.13229,-30.329617 -0.11331,-0.103359 -11.72536,-0.27119 -25.80454,-0.372956 -23.05537,-0.166648 -25.61426,-0.144032 -25.75688,0.227637 -0.0871,0.226967 0.25991,1.397463 0.77114,2.601102 5.37478,12.654595 4.89277,27.632294 -1.28687,39.987164 -11.22048,22.43295 -37.666695,32.44863 -60.971537,23.09106 -6.15564,-2.47167 -11.516365,-6.12703 -16.406294,-11.18708 C 40.434381,122.73334 36.627776,115.88896 34.538483,107.36543 33.388466,102.67378 33.091186,99.644202 33.26172,94.353961 33.479782,87.589402 34.685922,82.086428 37.158287,76.575991 37.701989,75.364178 37.82219,74.842607 37.607282,74.6277 37.292795,74.313213 5.5729413,74.18488 4.7652398,74.494826 4.3869888,74.639974 4.3471002,77.53547 4.350635,104.59118 c 0.00437,33.45917 -0.099317,31.52602 1.9107521,35.6243 0.8905135,1.81565 1.5652962,2.71338 3.5022632,4.65942 1.9704947,1.97973 2.8004477,2.60467 4.6445197,3.49725 4.174202,2.02043 -2.493423,1.86195 76.192723,1.81102 l 70.776047,-0.0458 z M 85.782675,137.82139 c 10.366851,-1.11937 20.472245,-6.4263 27.175515,-14.27145 7.45644,-8.72663 11.01839,-19.49477 10.17037,-30.746024 -0.99858,-13.248839 -7.6546,-24.628391 -18.76933,-32.089212 -3.21121,-2.155537 -9.355172,-5.054743 -12.374365,-5.839195 -7.830947,-2.034652 -15.842292,-1.841545 -23.608972,0.569076 -14.617232,4.53689 -25.556825,16.631306 -28.896951,31.947422 -0.505209,2.31663 -0.585526,3.483382 -0.585526,8.505761 0,5.022382 0.08032,6.189132 0.585526,8.505762 2.865914,13.14161 11.38464,24.05974 23.191462,29.7236 2.844374,1.36448 3.023034,1.42299 8.086739,2.64833 5.293677,1.28099 9.887194,1.60075 15.025532,1.04593 z m -9.469282,-3.85438 c -4.620723,-0.82766 -5.981414,-1.25379 -11.080139,-3.46994 -5.054947,-2.19713 -11.098324,-7.10909 -14.736281,-11.97743 -3.283199,-4.39359 -5.893036,-10.40701 -6.889788,-15.875 -0.629959,-3.455834 -0.636521,-10.110168 -0.01331,-13.493747 2.78202,-15.104277 14.48267,-27.156286 29.676808,-30.567974 3.008339,-0.675492 10.599092,-0.819187 13.92351,-0.263578 3.763579,0.629007 9.621361,2.524869 12.28139,3.974851 15.441547,8.417195 23.186387,26.476706 18.665927,43.525448 -2.80505,10.57914 -10.72945,20.04942 -20.664651,24.69587 -5.639088,2.63727 -9.087596,3.41101 -15.607218,3.50181 -2.692135,0.0375 -5.192448,0.0148 -5.55625,-0.0503 z m 9.526101,-6.03998 c 13.733629,-2.07035 24.546956,-12.54382 27.145676,-26.29251 0.57487,-3.041365 0.57674,-8.470612 0.004,-11.473506 -2.16999,-11.376549 -9.69456,-20.353771 -20.668452,-24.65859 -3.623088,-1.42126 -5.417791,-1.775103 -9.82753,-1.937597 -6.236489,-0.229803 -10.490235,0.612881 -15.590039,3.088455 -14.686558,7.12923 -21.796765,24.099721 -16.60564,39.633978 2.026902,6.06543 5.76343,11.26738 10.850317,15.10568 7.380986,5.5693 15.986131,7.84645 24.691701,6.53409 z M 102.80265,98.24444 c -0.82559,-0.578266 -1.35284,-1.922233 -1.35843,-3.462653 -0.003,-0.695899 -0.17331,-2.06131 -0.37951,-3.034247 -1.332506,-6.28723 -5.49038,-11.481985 -11.673333,-14.584394 -1.790991,-0.898663 -4.118925,-1.477899 -7.012813,-1.74493 -1.935618,-0.178609 -2.505988,-0.334205 -3.030136,-0.826614 -1.286745,-1.208836 -1.024345,-3.390606 0.506315,-4.209788 1.584061,-0.847764 9.381197,0.467691 12.684414,2.13999 8.227603,4.165335 13.882453,12.480885 14.390273,21.161163 0.082,1.401236 0.0698,2.863446 -0.0271,3.249354 -0.35965,1.432951 -2.80833,2.21665 -4.09973,1.312119 z M 43.051915,66.859747 C 45.879454,63.31383 47.493467,61.617613 50.217028,59.3297 61.458777,49.886131 76.404849,46.060513 90.7222,48.961939 c 6.098175,1.235802 13.1549,4.290629 18.11731,7.842911 3.04724,2.181326 7.83944,6.746214 9.80722,9.342012 2.53532,3.344492 2.22097,3.160281 5.39303,3.160281 2.16654,0 2.86198,-0.09073 3.18703,-0.415774 0.36748,-0.367488 0.41577,-2.039927 0.41577,-14.400893 0,-12.422542 -0.0469,-14.03206 -0.42013,-14.405252 -0.3815,-0.381498 -5.36332,-0.41365 -54.173442,-0.349629 l -53.753305,0.07051 -2.028468,0.6925 c -4.914455,1.677749 -8.9176197,5.034716 -11.0059734,9.229375 -1.8217489,3.659156 -1.976935,4.548963 -2.1123514,12.111795 -0.090075,5.030554 -0.03959,6.784422 0.2037319,7.077604 0.279183,0.336394 2.8173918,0.389768 18.5355999,0.389768 h 18.212121 z m 133.154095,2.000316 c 0.4033,-0.403301 0.43354,-1.083344 0.30876,-6.945312 -0.15446,-7.256225 -0.38884,-8.689007 -1.93361,-11.820126 -1.79738,-3.643151 -4.88179,-6.724594 -8.44172,-8.433612 -3.80866,-1.828424 -3.56337,-1.803495 -18.87007,-1.917859 -10.42309,-0.07788 -13.93645,-0.02585 -14.22135,0.210593 -0.31951,0.26517 -0.37838,2.523463 -0.37838,14.516208 0,10.693369 0.0785,14.280629 0.3175,14.519688 0.24167,0.241668 5.38742,0.3175 21.54465,0.3175 19.5752,0 21.26193,-0.03479 21.67422,-0.44708 z M 150.7936,63.243531 c -4.66689,-0.135904 -5.43773,-0.221599 -6.52877,-0.725832 -1.75217,-0.809776 -3.52464,-2.544103 -4.37987,-4.285615 -0.64479,-1.312973 -0.73302,-1.795214 -0.73302,-4.006191 0,-2.358022 0.0558,-2.616433 0.90172,-4.176506 1.05916,-1.953297 2.2244,-3.050813 4.24558,-3.998825 1.46247,-0.685956 1.48981,-0.688211 8.34645,-0.688211 h 6.87916 l 1.49632,0.701506 c 1.84652,0.865685 3.41617,2.447057 4.3829,4.415626 0.63124,1.285412 0.73455,1.815904 0.72964,3.74641 -0.005,1.896682 -0.12118,2.497624 -0.74279,3.836458 -0.92311,1.988241 -2.9016,3.895278 -4.75792,4.5861 -1.81708,0.676214 -3.51889,0.77914 -9.8394,0.59508 z m 8.0603,-5.644201 c 2.52614,-1.295336 2.84429,-4.255608 0.67535,-6.283854 -0.70487,-0.659148 -0.72801,-0.661738 -6.62585,-0.741571 -5.01843,-0.06793 -6.04312,-0.01569 -6.73784,0.343574 -2.31347,1.196346 -2.50704,4.891747 -0.33689,6.431661 1.06138,0.753142 1.29569,0.781109 6.8271,0.814811 4.73598,0.02886 5.10659,-0.0049 6.19813,-0.564621 z M 46.79071,34.486127 c 0.595117,-0.228367 0.597318,-3.59155 0.0028,-4.186126 -0.357823,-0.357815 -1.429882,-0.415775 -7.690321,-0.415775 -4.508548,0 -7.469127,0.104143 -7.78631,0.273892 -0.434207,0.232381 -0.511773,0.56656 -0.511773,2.204863 0,1.062032 0.07938,2.010343 0.17639,2.107356 0.220414,0.220416 15.236934,0.235413 15.809262,0.01579 z m 72.58456,-0.17013 c 0.18376,-0.230063 -0.20275,-1.91307 -1.26982,-5.52935 -1.76517,-5.982112 -2.06557,-6.660163 -3.23351,-7.298462 -0.79372,-0.433779 -2.36312,-0.473268 -21.757505,-0.547468 -14.295951,-0.05469 -21.209503,0.0095 -21.874772,0.203216 -1.649219,0.480145 -2.081691,1.305359 -3.881448,7.406264 -1.319207,4.471922 -1.592768,5.69146 -1.31604,5.866921 0.192138,0.121828 12.211249,0.22333 26.709135,0.225558 20.77448,0.0032 26.41576,-0.06603 26.62396,-0.326679 z"
             id="path23"
             inkscape:connector-curvature="0"
             sodipodi:nodetypes="cccscccscscscsscscsscsccccssccccccccscccccccsccsscsscccsscssccsssssssscssscccsssssssccccccssssscccccssccsccccsssscscscscssscscscscsscscscsccscsscsccccscsscsscccscsccccscscscsc" />
        </g>
      </g>
      <text
         id="text852"
         y="118.78422"
         x="80.798607"
         style="font-style:normal;font-variant:normal;font-weight:normal;font-stretch:normal;font-size:10.58333302px;line-height:1.25;font-family:Revit_HEB_SHX;-inkscape-font-specification:Revit_HEB_SHX;text-align:center;letter-spacing:0px;word-spacing:0px;text-anchor:middle;fill:#7b7c80;fill-opacity:1;stroke:none;stroke-width:0.26458332"
         xml:space="preserve"><tspan
           id="tspan854"
           style="font-style:normal;font-variant:normal;font-weight:normal;font-stretch:normal;font-family:Revit_HEB_SHX;-inkscape-font-specification:Revit_HEB_SHX;text-align:center;text-anchor:middle;fill:#7b7c80;fill-opacity:1;stroke-width:0.26458332"
           y="118.78422"
           x="80.798607"
           sodipodi:role="line">No image available</tspan></text>
    </g>
    <rect
       inkscape:export-ydpi="96"
       inkscape:export-xdpi="96"
       style="fill:#e0e0e0;fill-opacity:1;stroke-width:0.11074084"
       y="69.752159"
       x="10.092804"
       height="88.900002"
       width="59.53125"
       id="rect869" />
    <g
       transform="matrix(0.66573022,0,0,0.66573022,-14.106769,43.073577)"
       id="g883"
       inkscape:export-xdpi="96"
       inkscape:export-ydpi="96">
      <rect
         id="rect871"
         width="36.550072"
         height="23.718006"
         x="62.791298"
         y="88.262642"
         style="fill:#fffefe;fill-opacity:1;stroke-width:0.27525124"
         rx="5"
         ry="5.2182951" />
      <g
         id="g881"
         transform="matrix(0.19907978,0,0,0.19639004,63.077371,81.425935)">
        <path
           style="fill:#da6f45;stroke-width:0.26458335"
           d="m 19.427975,155.77852 c -4.138618,-0.51724 -8.383508,-2.3602 -11.9127063,-5.172 -4.8111437,-3.83316 -8.01746518,-9.72614 -8.7070964,-16.00301 -0.3894561,-3.54474 -0.3894561,-75.45424 0,-78.998982 C -0.3439042,47.886934 3.9750008,41.326582 10.868495,37.28508 14.079939,35.402281 18.450451,34.308147 23.7936,34.049345 l 1.322917,-0.06408 0.143245,-2.513542 c 0.161954,-2.841789 0.703048,-4.202072 2.160257,-5.430771 1.862328,-1.570289 1.937681,-1.580687 11.454831,-1.580687 8.308203,0 8.78894,0.02686 9.921876,0.554344 2.648722,1.233223 3.755668,3.115033 3.919294,6.662812 l 0.11321,2.454653 3.573298,-0.0734 3.573296,-0.07341 2.017398,-6.746875 c 2.246551,-7.513238 2.774834,-8.551534 5.168863,-10.158981 2.513785,-1.687854 1.360567,-1.614977 25.555475,-1.614977 24.19491,0 23.04169,-0.07288 25.55548,1.614977 2.39394,1.607394 2.9223,2.645785 5.16906,10.158981 l 2.01761,6.746875 18.09091,0.151532 c 19.36513,0.162203 18.68707,0.116044 22.82685,1.55398 4.96756,1.725464 9.95738,6.01967 12.69708,10.92703 1.43503,2.570424 2.47415,6.019818 2.81,9.327875 0.20779,2.046631 0.26732,14.257414 0.20059,41.142708 -0.0844,33.990201 -0.14201,38.423831 -0.51952,39.958561 -2.31398,9.40735 -9.02661,16.1216 -18.46242,18.46686 -1.56797,0.38972 -8.14359,0.4329 -71.708557,0.47089 -42.223193,0.0252 -70.769413,-0.0565 -71.966668,-0.20618 z M 42.329549,66.996349 c 1.677311,-2.285013 5.807697,-6.591213 8.186968,-8.535451 5.746578,-4.695859 13.022686,-8.242678 20.019008,-9.758489 5.714447,-1.238083 11.002561,-1.597882 15.776316,-1.073409 9.068568,0.996325 17.510429,4.419391 24.661969,10.000112 2.89476,2.258933 6.87809,6.29512 8.73125,8.847122 l 1.45521,2.003975 2.84427,0.01659 2.84427,0.01659 V 54.534146 40.554896 L 99.817503,40.378937 C 84.950282,40.282158 61.132762,40.202976 46.88968,40.202976 c -28.663572,0 -28.105619,-0.02986 -31.82733,1.703298 -4.647507,2.164292 -7.9447976,5.903648 -9.5800206,10.864411 -0.6609345,2.005073 -0.7037017,2.462117 -0.8111913,8.66898 -0.06241,3.603771 -0.045606,6.729161 0.037338,6.945312 0.131355,0.342305 2.4831437,0.392999 18.2320409,0.392999 h 18.081231 z m 119.378121,1.605785 14.08906,-0.175302 -0.005,-6.108282 c -0.005,-7.101184 -0.26074,-8.766397 -1.82959,-11.929115 -2.38652,-4.811104 -6.33653,-8.021032 -11.6216,-9.444167 -1.88201,-0.506781 -2.96327,-0.55362 -15.58224,-0.674995 l -13.5599,-0.130429 v 14.142678 c 0,7.778472 0.0794,14.222052 0.17639,14.319065 0.22396,0.223964 10.36035,0.22416 28.33247,5.29e-4 z M 150.7936,63.780135 c -5.01389,-0.153054 -5.37111,-0.198771 -6.80517,-0.870908 -1.87657,-0.879536 -3.65167,-2.672003 -4.61212,-4.65723 -0.62898,-1.300091 -0.7333,-1.847059 -0.74266,-3.893812 -0.009,-2.066952 0.0869,-2.590782 0.72982,-3.96875 0.96799,-2.074625 2.76402,-3.876368 4.78634,-4.801558 1.57048,-0.718479 1.78693,-0.744429 7.56983,-0.907584 3.27422,-0.09238 6.50986,-0.07075 7.19031,0.04805 2.97722,0.519808 5.53363,2.452393 6.88903,5.207928 0.80862,1.643917 0.8694,1.95384 0.86641,4.417843 -0.003,2.453212 -0.065,2.768455 -0.8352,4.247092 -1.00268,1.924844 -2.79664,3.642707 -4.72694,4.526428 -1.721,0.787903 -3.07232,0.873429 -10.30965,0.652501 z M 46.626002,32.331622 46.547767,30.545685 39.17166,30.475295 c -5.220923,-0.04982 -7.48216,0.01762 -7.739063,0.230833 -0.373311,0.309822 -0.522629,2.898979 -0.186565,3.235042 0.09701,0.09701 3.614795,0.17639 7.817297,0.17639 h 7.640908 z m 72.168788,1.461484 c 0.0551,-0.05514 -0.60483,-2.475248 -1.46662,-5.378008 -2.09976,-7.07264 -1.51401,-6.593329 -8.33687,-6.821834 -2.88548,-0.09664 -12.442242,-0.175704 -21.237239,-0.175704 -17.68779,0 -17.344086,-0.03172 -18.142871,1.67409 -0.619974,1.323951 -3.305728,10.717927 -3.121157,10.916883 0.168915,0.182078 52.121227,-0.0319 52.304757,-0.215427 z"
           id="path873"
           inkscape:connector-curvature="0"
           sodipodi:nodetypes="cssssccssscscccssscccsscccccscsssssccccccssssscscscccscscscccsccccsscccccsccsccsccccssccc" />
        <path
           style="fill:#7b7c80;stroke-width:0.26458335"
           d="m 19.427975,155.77852 c -4.138618,-0.51724 -8.383508,-2.3602 -11.9127063,-5.172 -4.8111437,-3.83316 -8.01746518,-9.72614 -8.7070964,-16.00301 -0.3894561,-3.54474 -0.3894561,-75.45424 0,-78.998982 C -0.3439042,47.886934 3.9750008,41.326582 10.868495,37.28508 14.079939,35.402281 18.450451,34.308147 23.7936,34.049345 l 1.322917,-0.06408 0.143245,-2.513542 c 0.161954,-2.841789 0.703048,-4.202072 2.160257,-5.430771 1.862328,-1.570289 1.937681,-1.580687 11.454831,-1.580687 8.308203,0 8.78894,0.02686 9.921876,0.554344 2.648722,1.233223 3.755668,3.115033 3.919294,6.662812 l 0.11321,2.454653 3.573298,-0.0734 3.573296,-0.07341 2.017398,-6.746875 c 2.246551,-7.513238 2.774834,-8.551534 5.168863,-10.158981 2.513785,-1.687854 1.360567,-1.614977 25.555475,-1.614977 24.19491,0 23.04169,-0.07288 25.55548,1.614977 2.39394,1.607394 2.9223,2.645785 5.16906,10.158981 l 2.01761,6.746875 18.09091,0.151532 c 19.36513,0.162203 18.68707,0.116044 22.82685,1.55398 4.96756,1.725464 9.95738,6.01967 12.69708,10.92703 1.43503,2.570424 2.47415,6.019818 2.81,9.327875 0.20779,2.046631 0.26732,14.257414 0.20059,41.142708 -0.0844,33.990201 -0.14201,38.423831 -0.51952,39.958561 -2.31398,9.40735 -9.02661,16.1216 -18.46242,18.46686 -1.56797,0.38972 -8.14359,0.4329 -71.708557,0.47089 -42.223193,0.0252 -70.769413,-0.0565 -71.966668,-0.20618 z m 95.052905,-6.7801 c 1.36057,-0.66984 2.22567,-1.36978 3.69852,-2.9924 1.05739,-1.16492 2.65624,-2.70004 3.553,-3.41137 2.38465,-1.89158 3.87548,-4.13675 4.95174,-7.45727 1.05021,-3.24019 1.403,-3.96674 3.10067,-6.38562 1.49839,-2.13494 2.23501,-4.21533 2.62115,-7.40276 0.35983,-2.97025 1.02959,-4.74095 2.7354,-7.23188 3.23675,-4.72648 3.83264,-6.22966 4.15429,-10.47961 0.22675,-2.99593 0.74101,-5.176837 1.63301,-6.925302 1.24656,-2.443461 1.58747,-3.9254 1.80026,-7.825898 0.23528,-4.312669 0.76465,-6.373085 2.8045,-10.915722 0.63753,-1.419741 1.15914,-2.699663 1.15914,-2.844271 0,-0.169902 -3.83801,-0.262924 -10.84792,-0.262924 -6.84329,0 -10.84791,0.09489 -10.84791,0.25704 0,0.14137 0.29329,0.920224 0.65176,1.730785 1.06429,2.406558 2.44039,6.93053 3.09745,10.183008 0.53781,2.662195 0.61326,3.787193 0.60335,8.995834 -0.0103,5.43049 -0.0738,6.24696 -0.72291,9.30006 -0.92237,4.3385 -2.00663,7.58005 -3.77803,11.29497 -4.96074,10.40354 -13.47124,18.76301 -23.83936,23.4163 -15.303074,6.86814 -32.891309,5.39275 -46.788306,-3.92484 -11.21437,-7.51895 -18.454751,-18.69122 -20.927354,-32.29195 -0.677527,-3.72678 -0.677958,-11.887705 -8.28e-4,-15.73204 0.638886,-3.627231 1.740646,-7.521218 2.917301,-10.310718 0.51989,-1.232508 0.945256,-2.394283 0.945256,-2.581722 0,-0.275037 -3.126957,-0.327639 -16.20573,-0.272616 l -16.2057295,0.06818 v 29.765626 c 0,24.05257 0.068376,30.04493 0.356243,31.22083 0.1959345,0.80037 0.8906827,2.57192 1.5438861,3.93679 0.9776539,2.04282 1.5695957,2.86731 3.3479211,4.66319 1.8124063,1.83029 2.5650453,2.37593 4.6738253,3.38838 2.191716,1.05226 3.437408,1.41819 6.35,1.86536 0.363802,0.0559 21.142751,0.087 46.175442,0.0692 l 45.513983,-0.0323 z M 42.329549,66.996349 c 1.677311,-2.285013 5.807697,-6.591213 8.186968,-8.53545 5.746578,-4.69586 13.022686,-8.242679 20.019008,-9.75849 5.714447,-1.238083 11.002561,-1.597882 15.776316,-1.073409 9.068568,0.996325 17.510429,4.419391 24.661969,10.000112 2.89476,2.258933 6.87809,6.29512 8.73125,8.847122 l 1.45521,2.003975 2.84427,0.01659 2.84427,0.01659 V 54.534146 40.554896 L 99.817503,40.378937 C 84.950282,40.282158 61.132762,40.202976 46.88968,40.202976 c -28.663572,0 -28.105619,-0.02986 -31.82733,1.703298 -4.647507,2.164292 -7.9447976,5.903648 -9.5800206,10.864411 -0.6609345,2.005073 -0.7037017,2.462117 -0.8111913,8.66898 -0.06241,3.603771 -0.045606,6.729161 0.037338,6.945312 0.131355,0.342305 2.4831437,0.392999 18.2320409,0.392999 h 18.081231 z m 119.378121,1.605785 14.08906,-0.175302 -0.005,-6.108282 c -0.005,-7.101184 -0.26074,-8.766397 -1.82959,-11.929115 -2.38652,-4.811104 -6.33653,-8.021032 -11.6216,-9.444167 -1.88201,-0.506781 -2.96327,-0.55362 -15.58224,-0.674995 l -13.5599,-0.130429 v 14.142678 c 0,7.778472 0.0794,14.222052 0.17639,14.319065 0.22396,0.223964 10.36035,0.22416 28.33247,5.29e-4 z M 150.7936,63.780135 c -5.01389,-0.153054 -5.37111,-0.198771 -6.80517,-0.870908 -1.87657,-0.879536 -3.65167,-2.672003 -4.61212,-4.65723 -0.62898,-1.300091 -0.7333,-1.847059 -0.74266,-3.893812 -0.009,-2.066952 0.0869,-2.590782 0.72982,-3.96875 0.96799,-2.074625 2.76402,-3.876368 4.78634,-4.801558 1.57048,-0.718479 1.78693,-0.744429 7.56983,-0.907584 3.27422,-0.09238 6.50986,-0.07075 7.19031,0.04805 2.97722,0.519808 5.53363,2.452393 6.88903,5.207928 0.80862,1.643917 0.8694,1.95384 0.86641,4.417843 -0.003,2.453212 -0.065,2.768455 -0.8352,4.247092 -1.00268,1.924844 -2.79664,3.642707 -4.72694,4.526428 -1.721,0.787903 -3.07232,0.873429 -10.30965,0.652501 z M 46.626002,32.331622 46.547767,30.545685 39.17166,30.475295 c -5.220923,-0.04982 -7.48216,0.01762 -7.739063,0.230833 -0.373311,0.309822 -0.522629,2.898979 -0.186565,3.235042 0.09701,0.09701 3.614795,0.17639 7.817297,0.17639 h 7.640908 z m 72.168788,1.461484 c 0.0551,-0.05514 -0.60483,-2.475248 -1.46662,-5.378008 -2.09976,-7.07264 -1.51401,-6.593329 -8.33687,-6.821834 -2.88548,-0.09664 -12.442242,-0.175704 -21.237239,-0.175704 -17.68779,0 -17.344086,-0.03172 -18.142871,1.67409 -0.619974,1.323951 -3.305728,10.717927 -3.121157,10.916883 0.168915,0.182078 52.121227,-0.0319 52.304757,-0.215427 z"
           id="path875"
           inkscape:connector-curvature="0"
           sodipodi:nodetypes="cssssccssscscccssscccsscccccscccccssccsscssscscccssscssscsscccccccsssssccccccssssscscscccscscscccsccccsscccccsccsccsccccssccc" />
        <path
           style="fill:#aa562b;stroke-width:0.26458335"
           d="m 18.808784,155.2858 c -3.161292,-0.53474 -6.810182,-1.99598 -9.434976,-3.77833 -1.7580082,-1.19377 -4.6599027,-4.05492 -5.9754084,-5.89152 -1.5425606,-2.15359 -2.88392136,-5.04291 -3.61265532,-7.78172 l -0.59839491,-2.24896 V 95.104018 54.622768 L -0.21425572,52.37381 C 2.1045077,43.659144 8.6919185,37.274343 17.575892,35.130832 c 0.654843,-0.158001 2.678906,-0.361326 4.497916,-0.451834 l 3.307292,-0.164563 0.14855,-2.52539 c 0.226907,-3.857487 1.404954,-5.774656 4.150392,-6.754408 1.319924,-0.471032 16.824775,-0.53051 18.360388,-0.07043 1.369391,0.410279 3.096744,1.928865 3.69684,3.250044 0.349671,0.769839 0.489059,1.712399 0.493229,3.335287 0.0036,1.39932 0.126915,2.383292 0.32331,2.579687 0.481875,0.481875 7.190452,0.438198 7.595164,-0.04945 0.167497,-0.201822 1.1381,-3.190034 2.156894,-6.64047 1.018791,-3.450434 2.075683,-6.711286 2.348643,-7.246332 0.713406,-1.398392 2.861013,-3.302275 4.390294,-3.892053 1.25929,-0.485656 2.27016,-0.50732 23.672756,-0.50732 21.4026,0 22.41347,0.02167 23.67276,0.50732 1.52928,0.589778 3.67688,2.493661 4.39029,3.892053 0.27296,0.535046 1.32985,3.795898 2.34864,7.246332 1.0188,3.450436 1.9894,6.438648 2.1569,6.64047 0.25401,0.306064 3.18859,0.36695 17.68605,0.36695 10.97751,0 17.95994,0.102452 18.95146,0.278072 9.27486,1.64278 16.53507,8.323268 18.96322,17.449012 l 0.59839,2.248958 v 40.48125 40.481253 l -0.59839,2.24896 c -1.16481,4.37772 -3.30331,7.99346 -6.582,11.12873 -3.00207,2.87074 -5.69684,4.44693 -9.80676,5.73604 l -2.32743,0.73002 -71.04063,0.0367 c -39.072345,0.0202 -71.616918,-0.0608 -72.321276,-0.17992 z m 95.672096,-6.28738 c 1.36057,-0.66984 2.22567,-1.36978 3.69852,-2.9924 1.05739,-1.16492 2.65624,-2.70004 3.553,-3.41137 2.38465,-1.89158 3.87548,-4.13675 4.95174,-7.45727 1.05021,-3.24019 1.403,-3.96674 3.10067,-6.38562 1.49839,-2.13494 2.23501,-4.21533 2.62115,-7.40276 0.35983,-2.97025 1.02959,-4.74095 2.7354,-7.23188 3.23675,-4.72648 3.83264,-6.22966 4.15429,-10.47961 0.22675,-2.99593 0.74101,-5.176837 1.63301,-6.925302 1.24656,-2.443461 1.58747,-3.9254 1.80026,-7.825898 0.23528,-4.312669 0.76465,-6.373085 2.8045,-10.915722 0.63753,-1.419741 1.15914,-2.699663 1.15914,-2.844271 0,-0.169902 -3.83801,-0.262924 -10.84792,-0.262924 -6.84329,0 -10.84791,0.09489 -10.84791,0.25704 0,0.14137 0.29329,0.920224 0.65176,1.730785 1.06429,2.406558 2.44039,6.93053 3.09745,10.183008 0.53781,2.662195 0.61326,3.787193 0.60335,8.995834 -0.0103,5.43049 -0.0738,6.24696 -0.72291,9.30006 -0.92237,4.3385 -2.00663,7.58005 -3.77803,11.29497 -4.96074,10.40354 -13.47124,18.76301 -23.83936,23.4163 -15.303074,6.86814 -32.891309,5.39275 -46.788306,-3.92484 -11.21437,-7.51895 -18.454751,-18.69122 -20.927354,-32.29195 -0.677527,-3.72678 -0.677958,-11.887705 -8.28e-4,-15.73204 0.638886,-3.627231 1.740646,-7.521218 2.917301,-10.310718 0.51989,-1.232508 0.945256,-2.394283 0.945256,-2.581722 0,-0.275037 -3.126957,-0.327639 -16.20573,-0.272616 l -16.2057295,0.06818 v 29.765626 c 0,24.05257 0.068376,30.04493 0.356243,31.22083 0.1959345,0.80037 0.8906827,2.57192 1.5438861,3.93679 0.9776539,2.04282 1.5695957,2.86731 3.3479211,4.66319 1.8124063,1.83029 2.5650453,2.37593 4.6738253,3.38838 2.191716,1.05226 3.437408,1.41819 6.35,1.86536 0.363802,0.0559 21.142751,0.087 46.175442,0.0692 l 45.513983,-0.0323 z M 85.782675,137.82139 c 10.366851,-1.11937 20.472245,-6.4263 27.175515,-14.27145 7.45644,-8.72663 11.01839,-19.49477 10.17037,-30.746024 -0.99858,-13.248839 -7.6546,-24.628391 -18.76933,-32.089212 -3.21121,-2.155537 -9.355172,-5.054743 -12.374365,-5.839195 -7.830947,-2.034652 -15.842292,-1.841545 -23.608972,0.569076 -14.617232,4.53689 -25.556825,16.631306 -28.896951,31.947422 -0.505209,2.31663 -0.585526,3.483382 -0.585526,8.505761 0,5.022382 0.08032,6.189132 0.585526,8.505762 2.865914,13.14161 11.38464,24.05974 23.191462,29.7236 2.844374,1.36448 3.023034,1.42299 8.086739,2.64833 5.293677,1.28099 9.887194,1.60075 15.025532,1.04593 z m -9.469282,-3.85438 c -4.620723,-0.82766 -5.981414,-1.25379 -11.080139,-3.46994 -5.054947,-2.19713 -11.098324,-7.10909 -14.736281,-11.97743 -3.283199,-4.39359 -5.893036,-10.40701 -6.889788,-15.875 -0.629959,-3.455834 -0.636521,-10.110168 -0.01331,-13.493747 2.78202,-15.104277 14.48267,-27.156286 29.676808,-30.567974 3.008339,-0.675492 10.599092,-0.819187 13.92351,-0.263578 3.763579,0.629007 9.621361,2.524869 12.28139,3.974851 15.441547,8.417195 23.186387,26.476706 18.665927,43.525448 -2.80505,10.57914 -10.72945,20.04942 -20.664651,24.69587 -5.639088,2.63727 -9.087596,3.41101 -15.607218,3.50181 -2.692135,0.0375 -5.192448,0.0148 -5.55625,-0.0503 z m 9.526101,-6.03998 c 13.733629,-2.07035 24.546956,-12.54382 27.145676,-26.29251 0.57487,-3.041365 0.57674,-8.470612 0.004,-11.473506 -2.16999,-11.376549 -9.69456,-20.353771 -20.668452,-24.65859 -3.623088,-1.42126 -5.417791,-1.775103 -9.82753,-1.937597 -6.236489,-0.229803 -10.490235,0.612881 -15.590039,3.088455 -14.686558,7.12923 -21.796765,24.099721 -16.60564,39.633978 2.026902,6.06543 5.76343,11.26738 10.850317,15.10568 7.380986,5.5693 15.986131,7.84645 24.691701,6.53409 z M 102.80265,98.24444 c -0.82559,-0.578266 -1.35284,-1.922233 -1.35843,-3.462653 -0.003,-0.695899 -0.17331,-2.06131 -0.37951,-3.034247 -1.332506,-6.28723 -5.49038,-11.481985 -11.673333,-14.584394 -1.790991,-0.898663 -4.118925,-1.477899 -7.012813,-1.74493 -1.935618,-0.178609 -2.505988,-0.334205 -3.030136,-0.826614 -1.286745,-1.208836 -1.024345,-3.390606 0.506315,-4.209788 1.584061,-0.847764 9.381197,0.467691 12.684414,2.13999 8.227603,4.165335 13.882453,12.480885 14.390273,21.161163 0.082,1.401236 0.0698,2.863446 -0.0271,3.249354 -0.35965,1.432951 -2.80833,2.21665 -4.09973,1.312119 z M 43.051915,66.859747 C 45.879454,63.31383 47.493467,61.617613 50.217028,59.3297 61.458777,49.886131 76.404849,46.060513 90.7222,48.961939 c 6.098175,1.235802 13.1549,4.290629 18.11731,7.842911 3.04724,2.181326 7.83944,6.746214 9.80722,9.342012 2.53532,3.344492 2.22097,3.160281 5.39303,3.160281 2.16654,0 2.86198,-0.09073 3.18703,-0.415774 0.36748,-0.367488 0.41577,-2.039927 0.41577,-14.400893 0,-12.422542 -0.0469,-14.03206 -0.42013,-14.405252 -0.3815,-0.381498 -5.36332,-0.41365 -54.173442,-0.349629 l -53.753305,0.07051 -2.028468,0.6925 c -4.914455,1.677749 -8.9176197,5.034716 -11.0059734,9.229375 -1.8217489,3.659156 -1.976935,4.548963 -2.1123514,12.111795 -0.090075,5.030554 -0.03959,6.784422 0.2037319,7.077604 0.279183,0.336394 2.8173918,0.389768 18.5355999,0.389768 h 18.212121 z m 133.154095,2.000316 c 0.4033,-0.403301 0.43354,-1.083344 0.30876,-6.945312 -0.15446,-7.256225 -0.38884,-8.689007 -1.93361,-11.820126 -1.79738,-3.643151 -4.88179,-6.724594 -8.44172,-8.433612 -3.80866,-1.828424 -3.56337,-1.803495 -18.87007,-1.917859 -10.42309,-0.07788 -13.93645,-0.02585 -14.22135,0.210593 -0.31951,0.26517 -0.37838,2.523463 -0.37838,14.516208 0,10.693369 0.0785,14.280629 0.3175,14.519688 0.24167,0.241668 5.38742,0.3175 21.54465,0.3175 19.5752,0 21.26193,-0.03479 21.67422,-0.44708 z M 150.7936,63.243531 c -4.66689,-0.135904 -5.43773,-0.221599 -6.52877,-0.725832 -1.75217,-0.809776 -3.52464,-2.544103 -4.37987,-4.285615 -0.64479,-1.312973 -0.73302,-1.795214 -0.73302,-4.006191 0,-2.358022 0.0558,-2.616433 0.90172,-4.176506 1.05916,-1.953297 2.2244,-3.050813 4.24558,-3.998825 1.46247,-0.685956 1.48981,-0.688211 8.34645,-0.688211 h 6.87916 l 1.49632,0.701506 c 1.84652,0.865685 3.41617,2.447057 4.3829,4.415626 0.63124,1.285412 0.73455,1.815904 0.72964,3.74641 -0.005,1.896682 -0.12118,2.497624 -0.74279,3.836458 -0.92311,1.988241 -2.9016,3.895278 -4.75792,4.5861 -1.81708,0.676214 -3.51889,0.77914 -9.8394,0.59508 z m 8.0603,-5.644201 c 2.52614,-1.295336 2.84429,-4.255608 0.67535,-6.283854 -0.70487,-0.659148 -0.72801,-0.661738 -6.62585,-0.741571 -5.01843,-0.06793 -6.04312,-0.01569 -6.73784,0.343574 -2.31347,1.196346 -2.50704,4.891747 -0.33689,6.431661 1.06138,0.753142 1.29569,0.781109 6.8271,0.814811 4.73598,0.02886 5.10659,-0.0049 6.19813,-0.564621 z M 46.79071,34.486127 c 0.595117,-0.228367 0.597318,-3.59155 0.0028,-4.186126 -0.357823,-0.357815 -1.429882,-0.415775 -7.690321,-0.415775 -4.508548,0 -7.469127,0.104143 -7.78631,0.273892 -0.434207,0.232381 -0.511773,0.56656 -0.511773,2.204863 0,1.062032 0.07938,2.010343 0.17639,2.107356 0.220414,0.220416 15.236934,0.235413 15.809262,0.01579 z m 72.58456,-0.17013 c 0.18376,-0.230063 -0.20275,-1.91307 -1.26982,-5.52935 -1.76517,-5.982112 -2.06557,-6.660163 -3.23351,-7.298462 -0.79372,-0.433779 -2.36312,-0.473268 -21.757505,-0.547468 -14.295951,-0.05469 -21.209503,0.0095 -21.874772,0.203216 -1.649219,0.480145 -2.081691,1.305359 -3.881448,7.406264 -1.319207,4.471922 -1.592768,5.69146 -1.31604,5.866921 0.192138,0.121828 12.211249,0.22333 26.709135,0.225558 20.77448,0.0032 26.41576,-0.06603 26.62396,-0.326679 z"
           id="path877"
           inkscape:connector-curvature="0"
           sodipodi:nodetypes="cccscccscscscsscscsscsccccssccccccccscccccssccsscssscscccssscssscsscccccccsssssssscssscccsssssssccccccssssscccccssccsccccsssscscscscssscscscscsscscscsccscsscsccccscsscsscccscsccccscscscsc" />
        <path
           style="fill:#232228;stroke-width:0.26458335"
           d="m 18.808784,155.2858 c -3.161292,-0.53474 -6.810182,-1.99598 -9.434976,-3.77833 -1.7580082,-1.19377 -4.6599027,-4.05492 -5.9754084,-5.89152 -1.5425606,-2.15359 -2.88392136,-5.04291 -3.61265532,-7.78172 l -0.59839491,-2.24896 V 95.104018 54.622768 L -0.21425572,52.37381 C 2.1045077,43.659144 8.6919185,37.274343 17.575892,35.130832 c 0.654843,-0.158001 2.678906,-0.361326 4.497916,-0.451834 l 3.307292,-0.164563 0.14855,-2.52539 c 0.226907,-3.857487 1.404954,-5.774656 4.150392,-6.754408 1.319924,-0.471032 16.824775,-0.53051 18.360388,-0.07043 1.369391,0.410279 3.096744,1.928865 3.69684,3.250044 0.349671,0.769839 0.489059,1.712399 0.493229,3.335287 0.0036,1.39932 0.126915,2.383292 0.32331,2.579687 0.481875,0.481875 7.190452,0.438198 7.595164,-0.04945 0.167497,-0.201822 1.1381,-3.190034 2.156894,-6.64047 1.018791,-3.450434 2.075683,-6.711286 2.348643,-7.246332 0.713406,-1.398392 2.861013,-3.302275 4.390294,-3.892053 1.25929,-0.485656 2.27016,-0.50732 23.672756,-0.50732 21.4026,0 22.41347,0.02167 23.67276,0.50732 1.52928,0.589778 3.67688,2.493661 4.39029,3.892053 0.27296,0.535046 1.32985,3.795898 2.34864,7.246332 1.0188,3.450436 1.9894,6.438648 2.1569,6.64047 0.25401,0.306064 3.18859,0.36695 17.68605,0.36695 10.97751,0 17.95994,0.102452 18.95146,0.278072 9.27486,1.64278 16.53507,8.323268 18.96322,17.449012 l 0.59839,2.248958 v 40.48125 40.481253 l -0.59839,2.24896 c -1.16481,4.37772 -3.30331,7.99346 -6.582,11.12873 -3.00207,2.87074 -5.69684,4.44693 -9.80676,5.73604 l -2.32743,0.73002 -71.04063,0.0367 c -39.072345,0.0202 -71.616918,-0.0608 -72.321276,-0.17992 z M 163.4936,149.41652 c 2.97266,-1.01235 5.24695,-2.41757 7.40428,-4.57489 2.15733,-2.15733 3.56255,-4.43162 4.57489,-7.40428 l 0.72083,-2.11667 0.0737,-30.14168 c 0.0406,-16.577932 -0.019,-30.22626 -0.13229,-30.329617 -0.11331,-0.103359 -11.72536,-0.27119 -25.80454,-0.372956 -23.05537,-0.166648 -25.61426,-0.144032 -25.75688,0.227637 -0.0871,0.226967 0.25991,1.397463 0.77114,2.601102 5.37478,12.654595 4.89277,27.632294 -1.28687,39.987164 -11.22048,22.43295 -37.666695,32.44863 -60.971537,23.09106 -6.15564,-2.47167 -11.516365,-6.12703 -16.406294,-11.18708 C 40.434381,122.73334 36.627776,115.88896 34.538483,107.36543 33.388466,102.67378 33.091186,99.644202 33.26172,94.353961 33.479782,87.589402 34.685922,82.086428 37.158287,76.575991 37.701989,75.364178 37.82219,74.842607 37.607282,74.6277 37.292795,74.313213 5.5729413,74.18488 4.7652398,74.494826 4.3869888,74.639974 4.3471002,77.53547 4.350635,104.59118 c 0.00437,33.45917 -0.099317,31.52602 1.9107521,35.6243 0.8905135,1.81565 1.5652962,2.71338 3.5022632,4.65942 1.9704947,1.97973 2.8004477,2.60467 4.6445197,3.49725 4.174202,2.02043 -2.493423,1.86195 76.192723,1.81102 l 70.776047,-0.0458 z M 85.782675,137.82139 c 10.366851,-1.11937 20.472245,-6.4263 27.175515,-14.27145 7.45644,-8.72663 11.01839,-19.49477 10.17037,-30.746024 -0.99858,-13.248839 -7.6546,-24.628391 -18.76933,-32.089212 -3.21121,-2.155537 -9.355172,-5.054743 -12.374365,-5.839195 -7.830947,-2.034652 -15.842292,-1.841545 -23.608972,0.569076 -14.617232,4.53689 -25.556825,16.631306 -28.896951,31.947422 -0.505209,2.31663 -0.585526,3.483382 -0.585526,8.505761 0,5.022382 0.08032,6.189132 0.585526,8.505762 2.865914,13.14161 11.38464,24.05974 23.191462,29.7236 2.844374,1.36448 3.023034,1.42299 8.086739,2.64833 5.293677,1.28099 9.887194,1.60075 15.025532,1.04593 z m -9.469282,-3.85438 c -4.620723,-0.82766 -5.981414,-1.25379 -11.080139,-3.46994 -5.054947,-2.19713 -11.098324,-7.10909 -14.736281,-11.97743 -3.283199,-4.39359 -5.893036,-10.40701 -6.889788,-15.875 -0.629959,-3.455834 -0.636521,-10.110168 -0.01331,-13.493747 2.78202,-15.104277 14.48267,-27.156286 29.676808,-30.567974 3.008339,-0.675492 10.599092,-0.819187 13.92351,-0.263578 3.763579,0.629007 9.621361,2.524869 12.28139,3.974851 15.441547,8.417195 23.186387,26.476706 18.665927,43.525448 -2.80505,10.57914 -10.72945,20.04942 -20.664651,24.69587 -5.639088,2.63727 -9.087596,3.41101 -15.607218,3.50181 -2.692135,0.0375 -5.192448,0.0148 -5.55625,-0.0503 z m 9.526101,-6.03998 c 13.733629,-2.07035 24.546956,-12.54382 27.145676,-26.29251 0.57487,-3.041365 0.57674,-8.470612 0.004,-11.473506 -2.16999,-11.376549 -9.69456,-20.353771 -20.668452,-24.65859 -3.623088,-1.42126 -5.417791,-1.775103 -9.82753,-1.937597 -6.236489,-0.229803 -10.490235,0.612881 -15.590039,3.088455 -14.686558,7.12923 -21.796765,24.099721 -16.60564,39.633978 2.026902,6.06543 5.76343,11.26738 10.850317,15.10568 7.380986,5.5693 15.986131,7.84645 24.691701,6.53409 z M 102.80265,98.24444 c -0.82559,-0.578266 -1.35284,-1.922233 -1.35843,-3.462653 -0.003,-0.695899 -0.17331,-2.06131 -0.37951,-3.034247 -1.332506,-6.28723 -5.49038,-11.481985 -11.673333,-14.584394 -1.790991,-0.898663 -4.118925,-1.477899 -7.012813,-1.74493 -1.935618,-0.178609 -2.505988,-0.334205 -3.030136,-0.826614 -1.286745,-1.208836 -1.024345,-3.390606 0.506315,-4.209788 1.584061,-0.847764 9.381197,0.467691 12.684414,2.13999 8.227603,4.165335 13.882453,12.480885 14.390273,21.161163 0.082,1.401236 0.0698,2.863446 -0.0271,3.249354 -0.35965,1.432951 -2.80833,2.21665 -4.09973,1.312119 z M 43.051915,66.859747 C 45.879454,63.31383 47.493467,61.617613 50.217028,59.3297 61.458777,49.886131 76.404849,46.060513 90.7222,48.961939 c 6.098175,1.235802 13.1549,4.290629 18.11731,7.842911 3.04724,2.181326 7.83944,6.746214 9.80722,9.342012 2.53532,3.344492 2.22097,3.160281 5.39303,3.160281 2.16654,0 2.86198,-0.09073 3.18703,-0.415774 0.36748,-0.367488 0.41577,-2.039927 0.41577,-14.400893 0,-12.422542 -0.0469,-14.03206 -0.42013,-14.405252 -0.3815,-0.381498 -5.36332,-0.41365 -54.173442,-0.349629 l -53.753305,0.07051 -2.028468,0.6925 c -4.914455,1.677749 -8.9176197,5.034716 -11.0059734,9.229375 -1.8217489,3.659156 -1.976935,4.548963 -2.1123514,12.111795 -0.090075,5.030554 -0.03959,6.784422 0.2037319,7.077604 0.279183,0.336394 2.8173918,0.389768 18.5355999,0.389768 h 18.212121 z m 133.154095,2.000316 c 0.4033,-0.403301 0.43354,-1.083344 0.30876,-6.945312 -0.15446,-7.256225 -0.38884,-8.689007 -1.93361,-11.820126 -1.79738,-3.643151 -4.88179,-6.724594 -8.44172,-8.433612 -3.80866,-1.828424 -3.56337,-1.803495 -18.87007,-1.917859 -10.42309,-0.07788 -13.93645,-0.02585 -14.22135,0.210593 -0.31951,0.26517 -0.37838,2.523463 -0.37838,14.516208 0,10.693369 0.0785,14.280629 0.3175,14.519688 0.24167,0.241668 5.38742,0.3175 21.54465,0.3175 19.5752,0 21.26193,-0.03479 21.67422,-0.44708 z M 150.7936,63.243531 c -4.66689,-0.135904 -5.43773,-0.221599 -6.52877,-0.725832 -1.75217,-0.809776 -3.52464,-2.544103 -4.37987,-4.285615 -0.64479,-1.312973 -0.73302,-1.795214 -0.73302,-4.006191 0,-2.358022 0.0558,-2.616433 0.90172,-4.176506 1.05916,-1.953297 2.2244,-3.050813 4.24558,-3.998825 1.46247,-0.685956 1.48981,-0.688211 8.34645,-0.688211 h 6.87916 l 1.49632,0.701506 c 1.84652,0.865685 3.41617,2.447057 4.3829,4.415626 0.63124,1.285412 0.73455,1.815904 0.72964,3.74641 -0.005,1.896682 -0.12118,2.497624 -0.74279,3.836458 -0.92311,1.988241 -2.9016,3.895278 -4.75792,4.5861 -1.81708,0.676214 -3.51889,0.77914 -9.8394,0.59508 z m 8.0603,-5.644201 c 2.52614,-1.295336 2.84429,-4.255608 0.67535,-6.283854 -0.70487,-0.659148 -0.72801,-0.661738 -6.62585,-0.741571 -5.01843,-0.06793 -6.04312,-0.01569 -6.73784,0.343574 -2.31347,1.196346 -2.50704,4.891747 -0.33689,6.431661 1.06138,0.753142 1.29569,0.781109 6.8271,0.814811 4.73598,0.02886 5.10659,-0.0049 6.19813,-0.564621 z M 46.79071,34.486127 c 0.595117,-0.228367 0.597318,-3.59155 0.0028,-4.186126 -0.357823,-0.357815 -1.429882,-0.415775 -7.690321,-0.415775 -4.508548,0 -7.469127,0.104143 -7.78631,0.273892 -0.434207,0.232381 -0.511773,0.56656 -0.511773,2.204863 0,1.062032 0.07938,2.010343 0.17639,2.107356 0.220414,0.220416 15.236934,0.235413 15.809262,0.01579 z m 72.58456,-0.17013 c 0.18376,-0.230063 -0.20275,-1.91307 -1.26982,-5.52935 -1.76517,-5.982112 -2.06557,-6.660163 -3.23351,-7.298462 -0.79372,-0.433779 -2.36312,-0.473268 -21.757505,-0.547468 -14.295951,-0.05469 -21.209503,0.0095 -21.874772,0.203216 -1.649219,0.480145 -2.081691,1.305359 -3.881448,7.406264 -1.319207,4.471922 -1.592768,5.69146 -1.31604,5.866921 0.192138,0.121828 12.211249,0.22333 26.709135,0.225558 20.77448,0.0032 26.41576,-0.06603 26.62396,-0.326679 z"
           id="path879"
           inkscape:connector-curvature="0"
           sodipodi:nodetypes="cccscccscscscsscscsscsccccssccccccccscccccccsccsscsscccsscssccsssssssscssscccsssssssccccccssssscccccssccsccccsssscscscscssscscscscsscscscsccscsscsccccscsscsscccscsccccscscscsc" />
      </g>
    </g>
    <text
       id="text887"
       y="127.33078"
       x="39.43988"
       style="font-style:normal;font-variant:normal;font-weight:normal;font-stretch:normal;font-size:8.57183075px;line-height:1.25;font-family:Revit_HEB_SHX;-inkscape-font-specification:Revit_HEB_SHX;text-align:center;letter-spacing:0px;word-spacing:0px;text-anchor:middle;fill:#7b7c80;fill-opacity:1;stroke:none;stroke-width:0.21429577"
       xml:space="preserve"
       inkscape:export-xdpi="96"
       inkscape:export-ydpi="96"><tspan
         id="tspan885"
         style="font-style:normal;font-variant:normal;font-weight:normal;font-stretch:normal;font-family:Revit_HEB_SHX;-inkscape-font-specification:Revit_HEB_SHX;text-align:center;text-anchor:middle;fill:#7b7c80;fill-opacity:1;stroke-width:0.21429577"
         y="127.33078"
         x="40.946648"
         sodipodi:role="line">No image </tspan><tspan
         id="tspan891"
         style="font-style:normal;font-variant:normal;font-weight:normal;font-stretch:normal;font-family:Revit_HEB_SHX;-inkscape-font-specification:Revit_HEB_SHX;text-align:center;text-anchor:middle;fill:#7b7c80;fill-opacity:1;stroke-width:0.21429577"
         y="138.13962"
         x="39.43988"
         sodipodi:role="line">available</tspan></text>
  </g>
</svg>
